HIERARCHY
ROOT Hips
{
	OFFSET -0.001795 -0.223333 0.028219
	CHANNELS 6 Xposition Yposition Zposition Zrotation Yrotation Xrotation 
	JOINT LeftUpLeg
	{
		OFFSET 0.069520 -0.091406 -0.006815
		CHANNELS 3 Zrotation Yrotation Xrotation
		JOINT LeftLeg
		{
			OFFSET 0.034277 -0.375199 -0.004496
			CHANNELS 3 Zrotation Yrotation Xrotation
			JOINT LeftFoot
			{
				OFFSET -0.013596 -0.397961 -0.043693
				CHANNELS 3 Zrotation Yrotation Xrotation
				JOINT LeftToe
				{
					OFFSET 0.026358 -0.055791 0.119288
					CHANNELS 3 Zrotation Yrotation Xrotation
					End Site
					{
						OFFSET 0.000000 0.000000 0.000000
					}
				}
			}
		}
	}
	JOINT RightUpLeg
	{
		OFFSET -0.067670 -0.090522 -0.004320
		CHANNELS 3 Zrotation Yrotation Xrotation
		JOINT RightLeg
		{
			OFFSET -0.038290 -0.382569 -0.008850
			CHANNELS 3 Zrotation Yrotation Xrotation
			JOINT RightFoot
			{
				OFFSET 0.015774 -0.398415 -0.042312
				CHANNELS 3 Zrotation Yrotation Xrotation
				JOINT RightToe
				{
					OFFSET -0.025372 -0.048144 0.123348
					CHANNELS 3 Zrotation Yrotation Xrotation
					End Site
					{
						OFFSET 0.000000 0.000000 0.000000
					}
				}
			}
		}
	}
	JOINT Spine
	{
		OFFSET -0.002533 0.108963 -0.026696
		CHANNELS 3 Zrotation Yrotation Xrotation
		JOINT Spine1
		{
			OFFSET 0.005487 0.135180 0.001092
			CHANNELS 3 Zrotation Yrotation Xrotation
			JOINT Spine2
			{
				OFFSET 0.001457 0.052922 0.025425
				CHANNELS 3 Zrotation Yrotation Xrotation
				JOINT Neck
				{
					OFFSET -0.002778 0.213870 -0.042857
					CHANNELS 3 Zrotation Yrotation Xrotation
					JOINT Head
					{
						OFFSET 0.005152 0.064970 0.051349
						CHANNELS 3 Zrotation Yrotation Xrotation
						End Site
						{
							OFFSET 0.000000 0.000000 0.000000
						}
					}
				}
				JOINT LeftShoulder
				{
					OFFSET 0.078845 0.121749 -0.034090
					CHANNELS 3 Zrotation Yrotation Xrotation
					JOINT LeftArm
					{
						OFFSET 0.090977 0.030469 -0.008868
						CHANNELS 3 Zrotation Yrotation Xrotation
						JOINT LeftForeArm
						{
							OFFSET 0.259612 -0.012772 -0.027456
							CHANNELS 3 Zrotation Yrotation Xrotation
							JOINT LeftHand
							{
								OFFSET 0.249234 0.008986 -0.001171
								CHANNELS 3 Zrotation Yrotation Xrotation
								End Site
								{
									OFFSET 0.000000 0.000000 0.000000
								}
							}
						}
					}
				}
				JOINT RightShoulder
				{
					OFFSET -0.081759 0.118833 -0.038615
					CHANNELS 3 Zrotation Yrotation Xrotation
					JOINT RightArm
					{
						OFFSET -0.096012 0.032551 -0.009143
						CHANNELS 3 Zrotation Yrotation Xrotation
						JOINT RightForeArm
						{
							OFFSET -0.253742 -0.013329 -0.021401
							CHANNELS 3 Zrotation Yrotation Xrotation
							JOINT RightHand
							{
								OFFSET -0.255298 0.007772 -0.005559
								CHANNELS 3 Zrotation Yrotation Xrotation
								End Site
								{
									OFFSET 0.000000 0.000000 0.000000
								}
							}
						}
					}
				}
			}
		}
	}
}
MOTION
Frames: 15
Frame Time: 0.050000
-0.010280 0.950710 -0.015155 -2.328538 -11.005892 3.675982 2.439674 0.283054 3.517691 0.979332 0.286597 -8.681205 4.370777 10.700919 12.797145 0.000000 0.000000 0.000000 -1.246009 0.180556 -1.451901 2.994945 -0.284184 -5.993063 3.216029 -1.461040 14.020683 0.000000 0.000000 0.000000 4.712339 -0.588726 6.486193 -6.295633 1.919719 -26.482710 1.857460 19.133989 29.742877 15.744813 -5.829149 -25.326156 0.000000 0.000000 0.000000 -0.589155 -14.468828 4.603889 -60.951037 -8.691964 -6.674238 -8.979104 -40.587599 4.357028 0.000000 0.000000 0.000000 10.172663 10.296888 5.808731 55.654195 51.120428 19.900488 -22.646319 68.507202 -7.380586 0.000000 0.000000 0.000000 
-0.011382 0.950789 -0.016224 -2.285939 -11.071574 3.562522 2.591813 0.294317 3.681763 0.766667 0.306694 -8.846533 4.358313 10.689804 12.930409 0.000000 0.000000 0.000000 -0.954452 0.162495 -1.384189 2.540382 -0.273213 -6.014892 3.239157 -1.406101 13.959870 0.000000 0.000000 0.000000 4.631818 -0.605221 6.834047 -6.216248 1.900597 -26.487650 1.962425 19.274677 29.497376 15.308288 -5.453792 -25.603091 0.000000 0.000000 0.000000 -0.644762 -14.035018 4.449320 -60.811899 -8.018141 -6.982546 -9.835950 -40.878277 4.666694 0.000000 0.000000 0.000000 9.464517 10.819113 5.907602 52.771647 53.322848 19.939097 -27.306707 60.454000 -9.322809 0.000000 0.000000 0.000000 
-0.011974 0.950610 -0.016210 -2.129786 -11.067461 3.428349 2.334436 0.300441 3.659876 0.995794 0.280802 -8.593928 4.379528 10.717337 12.854394 0.000000 0.000000 0.000000 -1.096137 0.161817 -1.306817 2.562878 -0.273120 -5.929952 3.195568 -1.402031 13.798588 0.000000 0.000000 0.000000 4.820681 -0.616939 6.841127 -6.422520 1.947605 -26.616501 2.204622 19.614228 29.707096 15.312654 -5.278444 -26.122789 0.000000 0.000000 0.000000 -0.314628 -13.949866 4.422781 -60.925776 -7.205914 -7.492965 -10.762454 -41.446499 5.033462 0.000000 0.000000 0.000000 8.571423 10.892499 5.787039 50.640490 54.763875 19.850986 -30.762461 53.716768 -9.893372 0.000000 0.000000 0.000000 
-0.012121 0.950438 -0.015280 -2.113143 -10.654192 3.312819 2.338851 0.320930 3.929023 1.041929 0.292834 -8.850895 4.157713 10.393375 12.781658 0.000000 0.000000 0.000000 -0.967954 0.127100 -0.968525 2.346047 -0.273272 -6.130209 2.999183 -1.665939 13.729001 0.000000 0.000000 0.000000 4.976164 -0.637294 6.973560 -6.461332 1.960588 -26.894070 2.479993 19.566660 29.707497 14.902266 -4.910834 -26.437822 0.000000 0.000000 0.000000 -0.438402 -13.544742 4.271427 -60.948646 -6.179684 -8.029788 -12.020724 -41.760542 5.502364 0.000000 0.000000 0.000000 8.061311 10.868613 5.687303 47.593424 55.081354 18.523724 -32.554456 48.849361 -9.709525 0.000000 0.000000 0.000000 
-0.012009 0.950145 -0.013533 -2.073914 -10.395041 3.124737 2.135668 0.335184 4.030901 1.337164 0.260088 -8.548718 4.080177 10.264006 12.511252 0.000000 0.000000 0.000000 -1.049926 0.109290 -0.720247 2.395582 -0.276068 -5.971018 2.835068 -1.820423 13.516033 0.000000 0.000000 0.000000 5.395022 -0.655593 6.849588 -6.648080 2.002932 -27.178244 2.678124 19.735210 29.811951 14.966375 -4.909786 -26.407163 0.000000 0.000000 0.000000 -0.586835 -13.150034 4.117542 -60.663678 -5.229227 -8.500563 -13.060578 -41.824285 5.842105 0.000000 0.000000 0.000000 7.762583 10.463883 5.474812 45.909534 55.174857 17.767639 -33.160735 45.843843 -9.251215 0.000000 0.000000 0.000000 
-0.011786 0.949881 -0.011353 -2.006405 -9.806632 2.754869 2.019232 0.356832 4.260873 1.479521 0.229734 -8.167032 3.830669 9.874461 12.137908 0.000000 0.000000 0.000000 -1.026832 0.058534 -0.142591 2.222525 -0.276779 -5.944147 2.525423 -2.192800 13.291433 0.000000 0.000000 0.000000 5.752041 -0.671960 6.795997 -6.753179 2.033108 -27.282886 2.882249 19.814502 29.796724 14.884120 -4.813124 -26.289308 0.000000 0.000000 0.000000 -0.985018 -12.938080 3.993617 -60.514070 -4.311418 -8.947760 -14.386858 -41.781804 6.252129 0.000000 0.000000 0.000000 8.077070 9.660948 5.237897 44.745516 54.141627 16.623068 -33.156900 45.504146 -9.080508 0.000000 0.000000 0.000000 
-0.011500 0.949610 -0.008974 -1.973866 -9.553996 2.588534 1.881053 0.376697 4.440531 1.642800 0.209244 -7.968353 3.740436 9.723319 11.895616 0.000000 0.000000 0.000000 -1.065876 0.025444 0.270994 2.179161 -0.279016 -6.048438 2.391976 -2.336935 13.159894 0.000000 0.000000 0.000000 6.001754 -0.664420 6.526434 -6.703220 2.023760 -27.398100 3.106889 19.912660 29.814752 14.850481 -4.776895 -26.188469 0.000000 0.000000 0.000000 -1.921956 -12.614780 3.791399 -59.579795 -3.553789 -9.080907 -15.608352 -41.205755 6.544769 0.000000 0.000000 0.000000 8.380182 8.709454 4.906062 45.016733 52.219348 15.707951 -33.403417 48.125137 -9.626580 0.000000 0.000000 0.000000 
-0.011096 0.949349 -0.006732 -1.947888 -9.191757 2.524054 1.822757 0.383898 4.526117 1.688901 0.199504 -7.844517 3.591453 9.482468 11.662644 0.000000 0.000000 0.000000 -1.129973 0.004980 0.549001 2.198204 -0.283412 -6.107089 2.204830 -2.573682 13.046257 0.000000 0.000000 0.000000 6.226130 -0.638725 6.056988 -6.515159 1.987958 -27.451345 3.225193 19.677857 29.824744 14.618164 -4.556460 -26.531906 0.000000 0.000000 0.000000 -2.319175 -12.069872 3.567047 -59.455666 -2.829134 -9.373973 -16.358964 -40.461579 6.684222 0.000000 0.000000 0.000000 8.935937 7.726566 4.581799 46.262888 49.701423 14.857630 -31.580752 53.073539 -9.734969 0.000000 0.000000 0.000000 
-0.010554 0.949099 -0.004607 -1.930071 -8.894515 2.441838 1.686787 0.397493 4.640411 1.863310 0.183635 -7.733322 3.478446 9.296133 11.451792 0.000000 0.000000 0.000000 -1.129875 -0.022859 0.878283 2.098864 -0.284809 -6.246699 2.056591 -2.763291 12.961851 0.000000 0.000000 0.000000 6.264532 -0.613492 5.744810 -6.380427 1.962687 -27.400868 3.376263 19.472081 29.809758 14.239085 -4.362849 -26.360922 0.000000 0.000000 0.000000 -3.323097 -11.718557 3.344623 -58.556339 -2.345611 -9.326643 -16.866416 -39.592055 6.690223 0.000000 0.000000 0.000000 9.586780 6.854518 4.313834 47.653986 46.369042 13.594466 -30.651759 60.480658 -10.547936 0.000000 0.000000 0.000000 
-0.009871 0.948913 -0.002630 -1.851030 -8.614679 2.517548 1.481180 0.406803 4.678648 2.022544 0.181484 -7.829532 3.354145 9.101205 11.362283 0.000000 0.000000 0.000000 -1.324044 -0.025059 1.030765 2.214916 -0.292309 -6.421231 1.922268 -2.958588 12.940184 0.000000 0.000000 0.000000 6.346354 -0.569017 5.160389 -6.187133 1.920423 -27.353561 3.418845 19.160411 30.080890 13.877340 -4.207202 -26.205141 0.000000 0.000000 0.000000 -3.926278 -11.503979 3.221069 -58.489527 -1.859945 -9.516704 -17.074906 -38.688281 6.638090 0.000000 0.000000 0.000000 10.878637 5.414555 3.878219 49.150680 42.584628 11.952801 -25.855098 70.089958 -8.937086 0.000000 0.000000 0.000000 
-0.009076 0.948531 -0.000587 -1.847259 -8.287267 2.562518 1.473944 0.400167 4.633328 1.973755 0.176133 -7.694677 3.234267 8.890496 11.091024 0.000000 0.000000 0.000000 -1.309658 -0.044340 1.248170 2.099111 -0.294148 -6.612668 1.757102 -3.182926 12.864855 0.000000 0.000000 0.000000 6.513317 -0.547606 4.808192 -6.149203 1.916372 -27.169764 3.325795 18.703824 30.032966 13.566004 -4.160430 -25.751629 0.000000 0.000000 0.000000 -4.794168 -11.129890 3.017264 -57.609473 -1.302769 -9.506439 -17.491277 -38.136869 6.695281 0.000000 0.000000 0.000000 11.898381 4.041954 3.362919 50.419438 37.761262 9.717500 -8.467103 80.948982 4.290139 0.000000 0.000000 0.000000 
-0.008212 0.948445 0.001294 -1.704195 -8.227117 2.528485 1.263664 0.406576 4.609009 1.953392 0.161790 -7.438692 3.222711 8.857418 10.963597 0.000000 0.000000 0.000000 -1.551077 -0.041617 1.390263 2.126896 -0.295464 -6.621175 1.708641 -3.227519 12.787312 0.000000 0.000000 0.000000 6.460752 -0.497707 4.301272 -6.014821 1.890032 -26.933355 3.315746 18.244595 30.191144 13.032252 -4.019902 -25.217205 0.000000 0.000000 0.000000 -5.204158 -10.646013 2.839906 -57.645987 -0.806307 -9.718225 -17.969708 -37.895379 6.880425 0.000000 0.000000 0.000000 12.552453 2.379224 2.588755 52.050302 32.938292 7.588017 79.656016 83.606182 86.925941 0.000000 0.000000 0.000000 
-0.007429 0.948170 0.002927 -1.710076 -8.165254 2.577665 1.277949 0.422713 4.794682 1.835893 0.183846 -7.697804 3.181251 8.785181 10.898667 0.000000 0.000000 0.000000 -1.600090 -0.045741 1.479243 2.115134 -0.296449 -6.684219 1.666984 -3.266231 12.723512 0.000000 0.000000 0.000000 6.541630 -0.465075 3.901917 -6.005912 1.889610 -26.799978 3.274182 17.381494 30.231711 12.414857 -3.834867 -24.937626 0.000000 0.000000 0.000000 -5.724927 -10.105130 2.670667 -57.378056 -0.158614 -9.895328 -18.900900 -38.090769 7.346760 0.000000 0.000000 0.000000 12.796395 1.220152 1.915688 53.131006 27.970603 5.270439 114.387142 74.939819 114.787420 0.000000 0.000000 0.000000 
-0.006822 0.948169 0.004000 -1.686452 -8.141879 2.709387 1.196751 0.414228 4.674020 1.847914 0.179870 -7.639833 3.182516 8.782376 10.865856 0.000000 0.000000 0.000000 -1.730730 -0.030957 1.392100 2.216983 -0.299180 -6.674661 1.653053 -3.293060 12.735638 0.000000 0.000000 0.000000 6.615687 -0.427033 3.439048 -5.835628 1.851402 -26.828851 3.206452 16.951475 30.500403 12.090517 -3.801402 -24.507279 0.000000 0.000000 0.000000 -5.776009 -9.554333 2.507069 -57.444244 0.007161 -10.006316 -19.416144 -38.427323 7.668336 0.000000 0.000000 0.000000 13.171732 -0.062949 1.253210 54.156463 24.022428 3.424218 121.692520 66.956739 115.798443 0.000000 0.000000 0.000000 
-0.006528 0.948175 0.004604 -1.635671 -7.931466 2.713371 1.202482 0.428357 4.842087 1.745930 0.203739 -7.947209 3.042463 8.577832 10.925940 0.000000 0.000000 0.000000 -1.780411 -0.021320 1.291579 2.193675 -0.297546 -6.408778 1.521301 -3.462049 12.630457 0.000000 0.000000 0.000000 6.669560 -0.414945 3.284193 -5.773814 1.840627 -26.761377 2.973956 16.268707 30.508348 11.802814 -3.797373 -24.120549 0.000000 0.000000 0.000000 -5.853035 -9.002635 2.347695 -57.557146 -0.101150 -9.964941 -19.731992 -39.101536 8.009770 0.000000 0.000000 0.000000 13.448051 -1.111818 0.664487 55.047519 20.783331 1.919239 124.076198 60.604969 112.139317 0.000000 0.000000 0.000000 
